PathFileType	4	(X/Y/Z)	/Users/itak/Documents/Research/Walk-IL/dataset/trc/00292_00010.trc
DataRate	CameraRate	NumFrames	NumMarkers	Units	OrigDataRate	OrigDataStartFrame	OrigNumFrames
100.000000	100.000000	4	54	mm	100.000000	244	653
Frame#	Time	RPSI			LPSI			L3			STRN			T10			C7			CLAV			RBAK			LBAK			LSHO			LUPA			LAEL			LAOL			LWTS			LWPS			LFRA			LHPS			LHTS			RSHO			RUPA			RAEL			RAOL			RWTS			RWPS			RFRA			RIFD			RHPS			RBHD			LFHD			RFHD			LBHD			LHIP			RHIP			RASI			LASI			LKNE			LTHI			LANK			LTIP			LTOE			LMT1			LMT5			LHEE			RKNE			RTHI			RANK			RTIP			RTOE			RMT1			RMT5			RHEE			RHTS			LIFD			*53			
		X1	Y1	Z1	X2	Y2	Z2	X3	Y3	Z3	X4	Y4	Z4	X5	Y5	Z5	X6	Y6	Z6	X7	Y7	Z7	X8	Y8	Z8	X9	Y9	Z9	X10	Y10	Z10	X11	Y11	Z11	X12	Y12	Z12	X13	Y13	Z13	X14	Y14	Z14	X15	Y15	Z15	X16	Y16	Z16	X17	Y17	Z17	X18	Y18	Z18	X19	Y19	Z19	X20	Y20	Z20	X21	Y21	Z21	X22	Y22	Z22	X23	Y23	Z23	X24	Y24	Z24	X25	Y25	Z25	X26	Y26	Z26	X27	Y27	Z27	X28	Y28	Z28	X29	Y29	Z29	X30	Y30	Z30	X31	Y31	Z31	X32	Y32	Z32	X33	Y33	Z33	X34	Y34	Z34	X35	Y35	Z35	X36	Y36	Z36	X37	Y37	Z37	X38	Y38	Z38	X39	Y39	Z39	X40	Y40	Z40	X41	Y41	Z41	X42	Y42	Z42	X43	Y43	Z43	X44	Y44	Z44	X45	Y45	Z45	X46	Y46	Z46	X47	Y47	Z47	X48	Y48	Z48	X49	Y49	Z49	X50	Y50	Z50	X51	Y51	Z51	X52	Y52	Z52	X53	Y53	Z53	X54	Y54	Z54	

245	2.44	-817.7562866210938	979.9093627929688	-9.864313125610352	-966.1537475585938	974.4482421875	-103.1825103759766	-878.7042846679688	1049.641723632812	-63.63315963745117	-758.2666625976562	1230.439208984375	-278.6896667480469	-879.17626953125	1164.030151367188	-40.76126480102539	-868.037841796875	1409.307373046875	-85.9779052734375	-790.9801635742188	1329.063598632812	-221.5358428955078	-826.7317504882812	1271.97119140625	-0.07876767218112946	-966.7156372070312	1375.266845703125	-120.8567962646484	-972.7174072265625	1384.499755859375	-225.4921722412109	-1060.61474609375	1275.682373046875	-215.2906188964844	-1085.776611328125	1076.451782226562	-180.4883728027344	-1043.419311523438	1075.79736328125	-104.0303497314453	-1043.501220703125	835.8116455078125	-176.1643371582031	-1113.892578125	837.2103881835938	-162.2076873779297	-1102.046630859375	972.62353515625	-170.2474365234375	-1120.1494140625	753.4356079101562	-131.6853637695312	-1066.296020507812	735.7064208984375	-163.8498840332031	-698.7244262695312	1383.969482421875	-67.31624603271484	-642.827392578125	1323.460815429688	-33.57252502441406	-574.8958740234375	1059.42578125	-33.56985855102539	-667.64306640625	1042.780029296875	-31.01672554016113	-592.046142578125	925.3515625	-243.1614379882812	-529.3670043945312	891.60107421875	-196.3292083740234	-552.8009033203125	1008.71435546875	-81.99455261230469	-579.7693481445312	779.4599609375	-356.8574523925781	-521.7747802734375	815.6986694335938	-281.2857055664062	-820.6312255859375	1571.42919921875	-81.05152130126953	-747.3915405273438	1589.226318359375	-280.6925048828125	-694.6885986328125	1585.01611328125	-203.925537109375	-904.6890869140625	1567.789306640625	-202.8514251708984	-1013.078857421875	935.1115112304688	-214.6363067626953	-677.6092529296875	926.0092163085938	-42.31562042236328	-684.4450073242188	934.0792236328125	-179.1167144775391	-896.1959228515625	947.900390625	-300.9296569824219	-908.109619140625	516.906494140625	-423.0630187988281	-953.0943603515625	641.7987670898438	-367.4537963867188	-949.671630859375	68.85562133789062	-510.7470397949219	-936.1381225585938	294.9581298828125	-475.5298156738281	-760.8098754882812	114.7001647949219	-591.9705810546875	-782.3864135742188	74.41478729248047	-524.9234008789062	-866.461181640625	96.18123626708984	-596.5369262695312	-945.8594360351562	45.65744781494141	-440.025634765625	-775.1585083007812	457.192138671875	-96.96659088134766	-684.3541259765625	708.3189697265625	-104.6847534179688	-899.7548217773438	49.34016418457031	33.37822723388672	-820.2169189453125	333.4598693847656	-97.31340026855469	-961.5791625976562	44.23498153686523	-160.4041748046875	-996.5176391601562	41.37821960449219	-99.44490051269531	-882.45166015625	42.0009880065918	-72.91783905029297	-946.13037109375	48.75844955444336	87.87887573242188	-560.7623901367188	848.722412109375	-330.5814514160156	-1065.297485351562	664.4178466796875	-108.1266632080078	nan	nan	nan	
246	2.45	-817.5968627929688	977.90478515625	-18.81266021728516	-964.662353515625	971.9563598632812	-114.0691680908203	-877.5118408203125	1047.756103515625	-72.80449676513672	-754.7867431640625	1228.500610351562	-286.7897033691406	-878.0880737304688	1162.225219726562	-49.80171585083008	-866.3839111328125	1407.463256835938	-95.32782745361328	-788.0166625976562	1327.106201171875	-230.0030670166016	-825.8497924804688	1270.26611328125	-8.733065605163574	-964.8243408203125	1373.239868164062	-131.0868835449219	-969.8292846679688	1382.343994140625	-235.75830078125	-1057.950927734375	1273.64990234375	-225.5867462158203	-1083.488403320312	1074.8388671875	-188.9366912841797	-1041.255981445312	1074.739990234375	-112.4415969848633	-1042.418701171875	833.8635864257812	-180.9849853515625	-1112.879638671875	835.9449462890625	-167.4222564697266	-1100.272583007812	971.2316284179688	-177.5001831054688	-1119.78466796875	752.809814453125	-135.1955261230469	-1065.7724609375	734.1387329101562	-166.5650634765625	-697.3055419921875	1382.026611328125	-74.86141204833984	-641.6210327148438	1321.476196289062	-40.64561462402344	-572.976318359375	1057.523071289062	-40.96944427490234	-665.4564819335938	1040.5478515625	-39.14498138427734	-589.7010498046875	928.8192138671875	-253.6595458984375	-527.2326049804688	893.6015625	-207.7794494628906	-550.670654296875	1007.88037109375	-90.3016357421875	-577.4529418945312	786.3764038085938	-371.5885009765625	-519.485595703125	820.26513671875	-294.9187622070312	-818.7886352539062	1569.695434570312	-90.46349334716797	-743.48876953125	1586.795532226562	-289.3991088867188	-691.5991821289062	1582.700805664062	-212.0965423583984	-901.6771850585938	1565.847412109375	-213.111328125	-1009.89404296875	932.63232421875	-226.1882934570312	-676.8341674804688	924.5238037109375	-49.5628776550293	-682.2149658203125	932.65087890625	-186.3114166259766	-891.8562622070312	946.191650390625	-310.8019714355469	-903.4631958007812	514.29345703125	-431.9169006347656	-948.9575805664062	639.319580078125	-377.5262451171875	-932.1763916015625	67.36961364746094	-532.0888671875	-925.8484497070312	293.1910095214844	-489.7496337890625	-743.2836303710938	120.9448013305664	-608.7229614257812	-764.8588256835938	78.37604522705078	-543.0994873046875	-848.2050170898438	99.34484100341797	-615.8497314453125	-928.8750610351562	42.49115371704102	-461.7880859375	-773.8148803710938	456.1519470214844	-100.2715759277344	-682.7340698242188	706.9649658203125	-109.9894180297852	-900.6371459960938	49.76570129394531	33.36598205566406	-819.1376953125	332.42919921875	-99.75999450683594	-961.4743041992188	44.25791168212891	-160.5671234130859	-996.6202392578125	41.53902053833008	-99.78103637695312	-882.645263671875	42.1370964050293	-72.74965667724609	-947.447021484375	49.83442687988281	87.82915496826172	-558.3753051757812	854.7992553710938	-343.2525024414062	-1065.2734375	664.0828857421875	-109.1182556152344	nan	nan	nan	
247	2.46	-817.2737426757812	975.8567504882812	-27.93568420410156	-963.0380859375	969.3637084960938	-125.036994934082	-876.2001342773438	1045.746337890625	-82.08809661865234	-751.3095703125	1226.484252929688	-294.8866577148438	-876.9064331054688	1160.338500976562	-58.91711044311523	-864.6692504882812	1405.552124023438	-104.6935653686523	-785.0248413085938	1325.082275390625	-238.5349731445312	-824.90625	1268.478759765625	-17.47431755065918	-962.8849487304688	1371.121826171875	-141.304443359375	-966.9053344726562	1380.099853515625	-246.0037994384766	-1055.23681640625	1271.504760742188	-235.9062652587891	-1081.201782226562	1073.100830078125	-197.5949401855469	-1039.104736328125	1073.477783203125	-121.060676574707	-1041.38232421875	831.8724365234375	-186.3971405029297	-1111.889892578125	834.6019897460938	-173.1778717041016	-1098.504150390625	969.7223510742188	-185.0902404785156	-1119.430908203125	752.0862426757812	-139.4241943359375	-1065.254760742188	732.54052734375	-170.0589599609375	-695.8375854492188	1380.03857421875	-82.48432922363281	-640.3333129882812	1319.435791015625	-47.81702041625977	-571.0947265625	1055.551391601562	-48.41453552246094	-663.3045654296875	1038.218383789062	-47.38185119628906	-587.3256225585938	931.8355102539062	-263.7834167480469	-525.1148071289062	895.2526245117188	-218.7909851074219	-548.6016845703125	1006.901123046875	-98.51362609863281	-575.10693359375	792.7116088867188	-385.5487670898438	-517.148193359375	824.3717651367188	-307.8812255859375	-816.849853515625	1567.935302734375	-99.88844299316406	-739.5650024414062	1584.294921875	-298.1360778808594	-688.4501953125	1580.316162109375	-220.3151397705078	-898.5967407226562	1563.880981445312	-223.3419647216797	-1006.61767578125	930.0632934570312	-237.8138275146484	-675.9111328125	923.0048217773438	-57.01429748535156	-679.82568359375	931.1866455078125	-193.7149200439453	-887.45849609375	944.3736572265625	-320.7279357910156	-898.5635986328125	511.6034240722656	-440.8307189941406	-944.5841064453125	636.7080688476562	-387.6919250488281	-915.763427734375	66.0826416015625	-550.9232788085938	-915.8829345703125	291.4092102050781	-502.8282775878906	-727.0980224609375	126.216926574707	-623.530517578125	-748.5888061523438	81.76935577392578	-559.133056640625	-831.2721557617188	102.0038375854492	-632.9080810546875	-912.8826904296875	39.82271957397461	-481.0046691894531	-772.3777465820312	455.1717834472656	-103.5442962646484	-680.9330444335938	705.63330078125	-115.3596115112305	-901.363037109375	50.28425598144531	33.32577133178711	-817.9402465820312	331.4580688476562	-102.1991882324219	-961.3687744140625	44.28811264038086	-160.6990814208984	-996.6803588867188	41.70887756347656	-100.0670471191406	-882.80322265625	42.27206420898438	-72.61669158935547	-948.607177734375	51.03850173950195	87.77328491210938	-555.9434814453125	860.2794189453125	-355.2971496582031	-1065.271362304688	663.6347045898438	-111.1060791015625	nan	nan	nan	
248	2.47	-816.765869140625	973.831787109375	-37.25261688232422	-961.2736206054688	966.7344360351562	-136.1124267578125	-874.764404296875	1043.641967773438	-91.52870941162109	-747.8238525390625	1224.425415039062	-302.99365234375	-875.6295776367188	1158.382202148438	-68.13221740722656	-862.8990478515625	1403.584228515625	-114.0760803222656	-782.0054931640625	1323.0224609375	-247.1372528076172	-823.9208984375	1266.610961914062	-26.32568550109863	-960.8684692382812	1368.93798828125	-151.4951782226562	-963.9454345703125	1377.795166015625	-256.2221374511719	-1052.473876953125	1269.278686523438	-246.2488098144531	-1078.90625	1071.258422851562	-206.4802093505859	-1036.95751953125	1072.033081054688	-129.9049072265625	-1040.349731445312	829.8407592773438	-192.4044494628906	-1110.906372070312	833.188232421875	-179.5041961669922	-1096.7353515625	968.115234375	-193.0450744628906	-1119.0712890625	751.2579956054688	-144.4098358154297	-1064.736083984375	730.9044799804688	-174.3687744140625	-694.3126831054688	1378.035766601562	-90.18479156494141	-638.9746704101562	1317.371826171875	-55.08026504516602	-569.2600708007812	1053.54345703125	-55.88970947265625	-661.2430419921875	1035.816040039062	-55.71147537231445	-584.9088134765625	934.3785400390625	-273.5442810058594	-522.9818115234375	896.5540161132812	-229.3517303466797	-546.6039428710938	1005.79931640625	-106.6260528564453	-572.706298828125	798.3705444335938	-398.7267150878906	-514.7548217773438	827.964599609375	-320.1614990234375	-814.81298828125	1566.174194335938	-109.3193283081055	-735.6295776367188	1581.740600585938	-306.9034729003906	-685.255126953125	1577.886840820312	-228.5816192626953	-895.4479370117188	1561.905639648438	-233.5384521484375	-1003.262329101562	927.4469604492188	-249.5062103271484	-674.8446655273438	921.49609375	-64.67747497558594	-677.2837524414062	929.730712890625	-201.3335876464844	-883.00927734375	942.4718627929688	-330.7085876464844	-893.282470703125	508.9219970703125	-449.8500671386719	-939.8941650390625	633.9928588867188	-397.9190673828125	-900.7108154296875	64.81625366210938	-567.211669921875	-906.2528076171875	289.5561828613281	-514.82373046875	-712.295166015625	130.1300506591797	-636.3092041015625	-733.7586059570312	84.24495697021484	-572.91796875	-815.7933959960938	103.8716049194336	-647.6685180664062	-898.2552490234375	37.50636291503906	-497.6015930175781	-770.8278198242188	454.2544860839844	-106.8383865356445	-678.96044921875	704.327392578125	-120.8293228149414	-901.901123046875	50.90212631225586	33.25307083129883	-816.6159057617188	330.5514831542969	-104.6787490844727	-961.26806640625	44.32292556762695	-160.8016815185547	-996.6965942382812	41.89528656005859	-100.2995147705078	-882.9070434570312	42.40330123901367	-72.53812408447266	-949.5472412109375	52.38406372070312	87.69606781005859	-553.4439697265625	865.0956420898438	-366.7196044921875	-1065.323974609375	663.0533447265625	-114.147819519043	nan	nan	nan	
